<?xml version="1.0" encoding="UTF-8" standalone="no"?>
<!-- Created with Inkscape (http://www.inkscape.org/) -->

<svg
   xmlns:dc="http://purl.org/dc/elements/1.1/"
   xmlns:cc="http://creativecommons.org/ns#"
   xmlns:rdf="http://www.w3.org/1999/02/22-rdf-syntax-ns#"
   xmlns:svg="http://www.w3.org/2000/svg"
   xmlns="http://www.w3.org/2000/svg"
   xmlns:sodipodi="http://sodipodi.sourceforge.net/DTD/sodipodi-0.dtd"
   xmlns:inkscape="http://www.inkscape.org/namespaces/inkscape"
   width="180.39742mm"
   height="180.39742mm"
   viewBox="0 0 180.39741 180.39742"
   version="1.1"
   id="svg976"
   inkscape:version="0.92.1 r15371"
   sodipodi:docname="info.svg">
  <defs
     id="defs970" />
  <sodipodi:namedview
     id="base"
     pagecolor="#ffffff"
     bordercolor="#666666"
     borderopacity="1.0"
     inkscape:pageopacity="0.0"
     inkscape:pageshadow="2"
     inkscape:zoom="0.98994949"
     inkscape:cx="575.41763"
     inkscape:cy="467.62886"
     inkscape:document-units="mm"
     inkscape:current-layer="flowRoot1527"
     showgrid="false"
     fit-margin-top="0"
     fit-margin-left="0"
     fit-margin-right="0"
     fit-margin-bottom="0"
     inkscape:pagecheckerboard="true"
     inkscape:window-width="2560"
     inkscape:window-height="1357"
     inkscape:window-x="0"
     inkscape:window-y="0"
     inkscape:window-maximized="1" />
  <metadata
     id="metadata973">
    <rdf:RDF>
      <cc:Work
         rdf:about="">
        <dc:format>image/svg+xml</dc:format>
        <dc:type
           rdf:resource="http://purl.org/dc/dcmitype/StillImage" />
        <dc:title></dc:title>
      </cc:Work>
    </rdf:RDF>
  </metadata>
  <g
     inkscape:label="Layer 1"
     inkscape:groupmode="layer"
     id="layer1"
     transform="translate(-14.303674,-15.970857)">
    <ellipse
       style="fill:none;fill-opacity:1;stroke-width:10.41399956;stroke-linecap:butt;stroke-linejoin:round;stroke-miterlimit:4;stroke-dasharray:none;paint-order:stroke markers fill"
       id="path978"
       cx="35.546848"
       cy="75.968102"
       rx="119.73675"
       ry="101.82969" />
    <ellipse
       style="fill:none;fill-opacity:1;stroke-width:10.41399956;stroke-linecap:butt;stroke-linejoin:round;stroke-miterlimit:4;stroke-dasharray:none;paint-order:stroke markers fill"
       id="path980"
       cx="85.258972"
       cy="140.91458"
       rx="47.841244"
       ry="40.624966" />
    <circle
       style="fill:none;fill-opacity:1;stroke:#000000;stroke-width:10.41399956;stroke-linecap:butt;stroke-linejoin:round;stroke-miterlimit:4;stroke-dasharray:none;stroke-opacity:1;paint-order:stroke markers fill"
       id="path982"
       cx="104.50238"
       cy="106.16956"
       r="84.991707" />
    <g
       aria-label="i"
       transform="matrix(0.26458333,0,0,0.26458333,7.4002983,33.932693)"
       style="font-style:normal;font-weight:normal;font-size:180px;line-height:125%;font-family:sans-serif;letter-spacing:0px;word-spacing:0px;fill:#000000;fill-opacity:1;stroke:none;stroke-width:1px;stroke-linecap:butt;stroke-linejoin:miter;stroke-opacity:1"
       id="flowRoot1527">
      <path
         d="m 382,350.12124 q -3,12 -5.4,22.8 -1.8,10.8 -1.8,21 0,16.8 8.4,28.2 9,10.8 33.6,10.8 10.2,0 19.8,-1.2 9.6,-1.8 18,-4.2 l -3,42 q -4.2,1.2 -15.6,3.6 -10.8,1.8 -31.2,1.8 -22.2,0 -37.8,-6 -15,-6 -24.6,-16.2 -9,-10.2 -13.2,-24 -3.6,-13.8 -3.6,-30 0,-12.6 1.8,-25.8 2.4,-13.2 5.4,-27 l 27,-109.8 h -80.4 l 9.6,-41.4 h 129.6 z m 15,-198.6 q -15.6,0 -25.8,-9 -10.2,-9 -10.2,-26.4 0,-20.999996 13.2,-32.999996 13.2,-12 29.4,-12 15.6,0 25.8,9.6 10.8,9.6 10.8,26.999996 0,10.2 -4.2,18 -3.6,7.8 -10.2,13.8 -6,6 -13.8,9 -7.2,3 -15,3 z"
         style="font-style:italic;font-variant:normal;font-weight:normal;font-stretch:normal;font-size:600px;font-family:'Ubuntu Mono';-inkscape-font-specification:'Ubuntu Mono Italic'"
         id="path1554" />
    </g>
  </g>
</svg>
